<mxfile host="app.diagrams.net" modified="2024-01-22T09:29:15.460Z" agent="Mozilla/5.0 (Windows NT 10.0; Win64; x64) AppleWebKit/537.36 (KHTML, like Gecko) Chrome/120.0.0.0 Safari/537.36" etag="El7TpHlTCSXXd381tKCg" version="22.1.21" type="github">
  <diagram name="Halaman-1" id="w3Xi91EMCM00RSbXkyQb">
    <mxGraphModel dx="1434" dy="780" grid="1" gridSize="10" guides="1" tooltips="1" connect="1" arrows="1" fold="1" page="1" pageScale="1" pageWidth="827" pageHeight="1169" math="0" shadow="0">
      <root>
        <mxCell id="0" />
        <mxCell id="1" parent="0" />
        <mxCell id="lplAH7TIw4S5BLfNkKIb-1" value="&lt;font style=&quot;vertical-align: inherit;&quot;&gt;&lt;font style=&quot;vertical-align: inherit;&quot;&gt;kamu&lt;/font&gt;&lt;/font&gt;" style="rounded=0;whiteSpace=wrap;html=1;" vertex="1" parent="1">
          <mxGeometry x="60" y="340" width="120" height="60" as="geometry" />
        </mxCell>
        <mxCell id="lplAH7TIw4S5BLfNkKIb-3" value="" style="endArrow=classic;html=1;rounded=0;" edge="1" parent="1">
          <mxGeometry width="50" height="50" relative="1" as="geometry">
            <mxPoint x="190" y="369.5" as="sourcePoint" />
            <mxPoint x="250" y="369.5" as="targetPoint" />
            <Array as="points">
              <mxPoint x="180" y="369.5" />
            </Array>
          </mxGeometry>
        </mxCell>
        <mxCell id="lplAH7TIw4S5BLfNkKIb-4" value="&lt;font style=&quot;vertical-align: inherit;&quot;&gt;&lt;font style=&quot;vertical-align: inherit;&quot;&gt;mengunjungi&amp;nbsp;&lt;br&gt;perpustakaan&lt;br&gt;&lt;/font&gt;&lt;/font&gt;" style="rounded=0;whiteSpace=wrap;html=1;" vertex="1" parent="1">
          <mxGeometry x="250" y="340" width="120" height="60" as="geometry" />
        </mxCell>
        <mxCell id="lplAH7TIw4S5BLfNkKIb-5" value="" style="endArrow=classic;html=1;rounded=0;" edge="1" parent="1">
          <mxGeometry width="50" height="50" relative="1" as="geometry">
            <mxPoint x="370" y="369.5" as="sourcePoint" />
            <mxPoint x="430" y="369.5" as="targetPoint" />
          </mxGeometry>
        </mxCell>
        <mxCell id="lplAH7TIw4S5BLfNkKIb-6" value="&lt;font style=&quot;vertical-align: inherit;&quot;&gt;&lt;font style=&quot;vertical-align: inherit;&quot;&gt;lihat daftar&amp;nbsp;&lt;br&gt;pengunjung&lt;br&gt;&lt;/font&gt;&lt;/font&gt;" style="rounded=0;whiteSpace=wrap;html=1;" vertex="1" parent="1">
          <mxGeometry x="430" y="340" width="120" height="60" as="geometry" />
        </mxCell>
        <mxCell id="lplAH7TIw4S5BLfNkKIb-7" value="" style="endArrow=none;html=1;rounded=0;" edge="1" parent="1">
          <mxGeometry width="50" height="50" relative="1" as="geometry">
            <mxPoint x="400" y="545" as="sourcePoint" />
            <mxPoint x="400" y="195" as="targetPoint" />
          </mxGeometry>
        </mxCell>
        <mxCell id="lplAH7TIw4S5BLfNkKIb-8" value="" style="endArrow=classic;html=1;rounded=0;" edge="1" parent="1">
          <mxGeometry width="50" height="50" relative="1" as="geometry">
            <mxPoint x="400" y="200" as="sourcePoint" />
            <mxPoint x="470" y="200" as="targetPoint" />
            <Array as="points" />
          </mxGeometry>
        </mxCell>
        <mxCell id="lplAH7TIw4S5BLfNkKIb-11" value="&lt;font style=&quot;vertical-align: inherit;&quot;&gt;&lt;font style=&quot;vertical-align: inherit;&quot;&gt;isi from pengunjung&lt;/font&gt;&lt;/font&gt;" style="rounded=0;whiteSpace=wrap;html=1;" vertex="1" parent="1">
          <mxGeometry x="470" y="170" width="120" height="60" as="geometry" />
        </mxCell>
        <mxCell id="lplAH7TIw4S5BLfNkKIb-12" value="&lt;font style=&quot;vertical-align: inherit;&quot;&gt;&lt;font style=&quot;vertical-align: inherit;&quot;&gt;Pencarian buku&lt;/font&gt;&lt;/font&gt;" style="rounded=0;whiteSpace=wrap;html=1;" vertex="1" parent="1">
          <mxGeometry x="480" y="510" width="120" height="60" as="geometry" />
        </mxCell>
        <mxCell id="lplAH7TIw4S5BLfNkKIb-13" value="" style="endArrow=classic;html=1;rounded=0;" edge="1" parent="1">
          <mxGeometry width="50" height="50" relative="1" as="geometry">
            <mxPoint x="400" y="539.5" as="sourcePoint" />
            <mxPoint x="470" y="539.5" as="targetPoint" />
          </mxGeometry>
        </mxCell>
      </root>
    </mxGraphModel>
  </diagram>
</mxfile>
